<svg width="52" height="18" viewBox="0 0 52 18" fill="none" xmlns="http://www.w3.org/2000/svg">
<path d="M52 17.7333C50.7447 17.7333 49.6372 17.7628 48.533 17.7078C48.3197 17.6974 48.0106 17.3951 47.9369 17.16C47.7385 16.5247 47.643 15.853 47.4925 15.128C45.8359 15.128 44.2038 15.102 42.5739 15.1575C42.3405 15.1657 42.0139 15.5224 41.9092 15.7951C41.1697 17.7281 41.185 17.7344 39.1745 17.7344C38.4176 17.7344 37.6607 17.7344 36.7762 17.7344C36.9093 17.3418 37.0004 17.0326 37.1176 16.7349C39.0163 11.9217 40.9189 7.1107 42.8204 2.29858C43.4873 0.610575 43.9361 0.292083 45.6636 0.291504C46.5393 0.291504 47.4156 0.297874 48.2914 0.304244C48.347 0.304823 48.4026 0.333776 48.5744 0.38184C49.7005 6.08226 50.8363 11.8383 52 17.7333ZM46.7885 11.4445C46.3828 9.36331 45.9979 7.38634 45.6123 5.40938C45.5616 5.41169 45.5114 5.41343 45.4607 5.41575C44.7786 7.39792 44.0958 9.37952 43.3848 11.4445C44.5392 11.4445 45.5752 11.4445 46.7885 11.4445Z" fill="#1C33C3"/>
<path d="M0.0621644 0.285983C2.6807 0.285983 5.2987 0.272664 7.91669 0.313199C8.10373 0.316095 8.4042 0.685545 8.45164 0.928178C9.1169 4.34299 9.74727 7.76533 10.3885 11.1854C10.4202 11.355 10.4753 11.5195 10.5881 11.9492C11.1073 10.4818 11.5424 9.26108 11.971 8.03865C12.7922 5.69629 13.6293 3.3603 14.414 1.00462C14.6032 0.437122 14.8617 0.251238 15.4162 0.270927C16.6355 0.314357 17.8576 0.284245 19.2072 0.284245C18.9967 0.834947 18.826 1.28431 18.6537 1.73251C16.7135 6.79306 14.763 11.8496 12.8468 16.9205C12.6167 17.5303 12.3407 17.777 11.706 17.7457C10.5134 17.6878 9.31649 17.7289 8.0263 17.7289C7.53498 15.7884 7.04367 13.8647 6.56216 11.9387C5.96669 9.55467 5.39904 7.16193 4.76976 4.78656C4.66233 4.38179 4.37441 3.96254 4.05868 3.70079C2.72869 2.59997 1.35671 1.55648 0 0.491555C0.0207215 0.423224 0.041443 0.354314 0.0621644 0.285983Z" fill="#1C33C3"/>
<path d="M25.6738 13.3744C27.0627 13.6807 28.4058 14.0502 29.7707 14.2465C30.4071 14.338 31.128 14.2181 31.7365 13.9801C32.9809 13.4942 33.1167 12.2637 32.0571 11.4154C31.5964 11.0465 31.0554 10.7923 30.557 10.4749C29.9087 10.0621 29.2216 9.69956 28.6299 9.20851C26.4574 7.40642 26.2622 4.43981 28.1664 2.31287C29.8896 0.388599 32.1259 -0.0908762 34.4914 0.0127785C35.6032 0.0614208 36.7048 0.380492 37.8766 0.588959C37.6678 1.98685 37.4878 3.18959 37.3117 4.36743C36.311 4.12596 35.3922 3.78488 34.4559 3.71597C33.6696 3.65806 32.8113 3.77619 32.0773 4.07268C31.1329 4.45371 31.0592 5.47404 31.8777 6.11798C32.5043 6.61135 33.2236 6.97211 33.9014 7.39194C34.2782 7.62531 34.6588 7.85347 35.0312 8.09494C38.4355 10.3053 37.5369 14.7688 35.1021 16.3821C34.0001 17.1123 32.675 17.6144 31.3908 17.8472C29.5482 18.1807 27.674 17.9439 25.8592 17.359C25.2987 17.1783 25.044 16.96 25.2152 16.2512C25.453 15.2714 25.5413 14.2511 25.6738 13.3744Z" fill="#1C33C3"/>
<path d="M20.8692 0.329102C22.335 0.329102 23.6988 0.329102 25.1471 0.329102C24.261 6.1465 23.3847 11.9019 22.5029 17.691C21.0873 17.691 19.7257 17.691 18.2267 17.691C19.1133 11.8631 19.9918 6.09265 20.8692 0.329102Z" fill="#1C33C3"/>
</svg>
