<svg width="200" height="50" viewBox="0 0 200 50" fill="none" xmlns="http://www.w3.org/2000/svg">
<path fill-rule="evenodd" clip-rule="evenodd" d="M35.7196 23.0499V19.23L37.0991 17.8494V21.1594L38.2998 22.3591L43.1291 17.5297L44.3195 18.7191C44.3092 17.8196 44.1293 15.2096 41.9192 13.0396C39.5395 10.74 36.9593 11.7793 36.0794 12.6592L31.2593 17.4793L32.4897 18.7098L30 21.2191L27.5093 18.7293L28.7397 17.4999L23.9196 12.6798C23.0397 11.7999 20.4595 10.7596 18.0798 13.0591C15.8697 15.2291 15.6898 17.8391 15.6795 18.7396L16.8699 17.5492L21.6992 22.3796L22.8999 21.18V17.87L24.2794 19.2495V23.0694L26.2192 24.9999L16.6592 34.5599L20.44 38.3295L30 28.7797L39.559 38.3397L43.3399 34.5692L33.7798 24.9999L35.7196 23.0499ZM56.6705 26.6703H63.8806V28.9401H59.3709V31.2705H60.8707C61.8802 31.2705 63.1805 31.3907 64.1602 32.3508C64.5806 32.7703 65.1008 33.5402 65.1008 34.7799C65.1008 35.1541 65.0545 35.5129 64.9651 35.848C64.815 36.4072 64.5426 36.8985 64.1602 37.2799C63.9001 37.54 63.6051 37.7394 63.2813 37.8905C63.1343 37.9584 62.9811 38.017 62.8218 38.0673C62.7436 38.092 62.6645 38.1146 62.5833 38.1352C61.9953 38.2842 61.3395 38.3305 60.6404 38.3305H56.6705V26.6703ZM60.4307 36.1605C60.8008 36.1605 61.4608 36.1307 61.8802 35.7904C61.9614 35.7205 62.1001 35.5828 62.2019 35.3638C62.2759 35.2065 62.3304 35.0071 62.3304 34.7604C62.3304 34.672 62.3232 34.5887 62.3109 34.5106C62.2975 34.4273 62.277 34.3502 62.2523 34.2783C62.2132 34.1652 62.1618 34.0665 62.1043 33.9812C62.0498 33.901 61.9891 33.8332 61.9285 33.7766C61.9017 33.752 61.875 33.7293 61.8483 33.7088L61.8103 33.68C61.3908 33.3798 60.7103 33.3706 60.4307 33.3706H59.3606V36.1707H60.4307V36.1605ZM74.8797 30.5303H72.3602V31.4103C71.874 30.7493 71.2274 30.4615 70.6559 30.3443C70.3814 30.2877 70.1244 30.2703 69.9096 30.2703C68.8302 30.2703 67.8804 30.6598 67.1999 31.3404C66.4803 32.0599 65.9899 33.1804 65.9899 34.49C65.9899 35.52 66.3096 36.5398 67.13 37.4105C67.9904 38.3202 68.9299 38.5998 70.0504 38.5998C70.3804 38.5998 70.7967 38.5587 71.2151 38.3798C71.6191 38.2071 72.0261 37.9059 72.3602 37.3899V38.3305H74.8797V30.5303ZM68.5804 34.4201C68.5804 34.0346 68.677 33.7221 68.8076 33.4754C68.9145 33.275 69.043 33.1177 69.1602 33.0005C69.4901 32.6705 69.9897 32.4403 70.5304 32.4506C70.9899 32.4506 71.5502 32.6202 71.9295 32.9902C71.9994 33.056 72.0642 33.128 72.1228 33.2051C72.1896 33.2945 72.2482 33.3911 72.2985 33.4929C72.4363 33.7694 72.5103 34.0881 72.5103 34.4201C72.5103 35.0904 72.2297 35.5807 71.8997 35.8901C71.7352 36.0546 71.5358 36.1892 71.3138 36.2828C71.0907 36.3774 70.845 36.4298 70.5901 36.4298C69.9897 36.4298 69.4501 36.1903 69.0995 35.8202C68.8795 35.5704 68.5804 35.1202 68.5804 34.4201ZM76.4001 30.5303H78.9196V33.24H81.7404V30.5303H84.26V38.3305H81.7404V35.2703H78.9196V38.3305H76.4001V30.5303ZM88.289 30.5303H85.77V38.3305H88.289V34.8704L90.95 38.3305H94.2L90.63 34.1508L93.97 30.5303H90.84L88.289 33.6307V30.5303ZM60.7792 11.6703C61.7897 11.6703 62.9102 11.8101 63.8395 12.6304C64.8397 13.5001 64.9795 14.6607 64.9795 15.4604C64.9795 16.9304 64.4192 17.7507 63.9793 18.2102C63.05 19.1508 61.8298 19.2402 61.0095 19.2402H59.3699V23.3305H56.6797V11.6703H60.7792ZM59.3596 17.0404H60.3197C60.4626 17.0404 60.6446 17.0373 60.8399 17.0096C61.1534 16.9654 61.4998 16.8584 61.7702 16.6004C62.0097 16.3599 62.2101 15.9508 62.2101 15.4501C62.2101 15.226 62.1742 15.0194 62.1094 14.8385C62.0333 14.6247 61.9161 14.4448 61.7702 14.3101C61.3693 13.9308 60.7895 13.8702 60.2693 13.8702H59.3596V17.0404ZM74.0697 15.5303H71.5502V16.4103C71.2048 15.9405 70.7782 15.6588 70.3557 15.4933C69.8972 15.3134 69.4429 15.2703 69.0995 15.2703C68.0202 15.2703 67.0703 15.6598 66.3898 16.3404C65.6702 17.0599 65.1799 18.1804 65.1799 19.49C65.1799 20.1561 65.3135 20.8182 65.6302 21.438C65.8029 21.7772 66.03 22.1031 66.3199 22.4105C67.1803 23.3202 68.1199 23.5998 69.2404 23.5998C69.5693 23.5998 69.9825 23.5597 70.3989 23.3829C70.8049 23.2102 71.214 22.909 71.5502 22.3899V23.3305H74.0697V15.5303ZM67.7704 19.4201C67.7704 18.7201 68.0901 18.2606 68.3501 18.0005C68.6801 17.6705 69.19 17.4403 69.7204 17.4506C69.8561 17.4506 70 17.466 70.146 17.4958C70.2313 17.5133 70.3166 17.5359 70.402 17.5647C70.6641 17.6531 70.917 17.7929 71.1195 17.9902C71.3127 18.1732 71.4628 18.4024 71.5615 18.6605C71.6036 18.7705 71.6365 18.8856 71.6602 19.0038C71.6705 19.0552 71.6787 19.1076 71.6848 19.1611C71.69 19.2032 71.6931 19.2464 71.6951 19.2896C71.6982 19.3328 71.7003 19.3759 71.7003 19.4201C71.7003 20.0904 71.4196 20.5807 71.0897 20.8901C70.917 21.0628 70.7062 21.2026 70.4708 21.2972C70.3793 21.3342 70.2837 21.364 70.1851 21.3856L70.0761 21.4072L69.9743 21.4195C69.9106 21.4267 69.8458 21.4298 69.78 21.4298C69.5179 21.4298 69.2671 21.3835 69.0378 21.3013C68.7439 21.1954 68.4869 21.0289 68.2895 20.8202C68.0695 20.5704 67.7704 20.1202 67.7704 19.4201ZM78.1096 15.5303V19.9906L81.4299 15.5303H83.771V23.3305H81.25V18.8003L77.9297 23.3305H75.5901V15.5303H78.1096ZM82.851 12.3807C82.64 13.0098 82.22 13.5505 81.7301 13.8702C81.0701 14.3101 80.2601 14.3605 79.6803 14.3605C79.1006 14.3605 78.2998 14.3101 77.6306 13.8702C77.573 13.8332 77.5165 13.7941 77.461 13.7509C77.3982 13.7026 77.3366 13.6502 77.277 13.5936C77.2132 13.533 77.1515 13.4693 77.0919 13.4014C76.8421 13.1136 76.6376 12.762 76.5101 12.3807L78.2597 11.7001C78.3296 12.0497 78.5002 12.3303 78.7099 12.4999C78.9402 12.6901 79.2301 12.8103 79.67 12.8103C79.778 12.8103 79.8767 12.8031 79.9682 12.7898L80.0206 12.7816L80.072 12.7713L80.1408 12.7538L80.2097 12.7332C80.3742 12.6788 80.5099 12.5986 80.6302 12.4999C80.8399 12.3303 81.0105 12.0497 81.0804 11.7001L82.851 12.3807ZM89.34 23.4508V27.2203H91.88V23.4508H91.98C93.75 23.4508 94.73 22.7199 95.18 22.2799C95.411 22.0527 95.641 21.7628 95.833 21.402C95.866 21.3404 95.897 21.2766 95.927 21.2108L95.981 21.0895C96.048 20.9281 96.106 20.7554 96.154 20.5694C96.214 20.3422 96.257 20.0965 96.281 19.8303C96.287 19.7552 96.292 19.6792 96.295 19.601C96.298 19.5311 96.299 19.4612 96.299 19.3903C96.299 18.8846 96.223 18.4395 96.099 18.0509C95.989 17.7055 95.84 17.4053 95.67 17.1473C95.63 17.0856 95.588 17.026 95.545 16.9684L95.508 16.9201L95.444 16.841C95.285 16.6467 95.116 16.4832 94.95 16.3506C94.18 15.74 93.02 15.4101 91.99 15.4101H91.87V11.6703H89.35V15.4101H89.23C88.19 15.4101 87.039 15.74 86.27 16.3506C85.62 16.8708 84.92 17.8504 84.92 19.3903C84.92 20.8099 85.48 21.7402 86.04 22.2799C86.49 22.7199 87.47 23.4508 89.239 23.4508H89.34ZM88.829 17.4937C89.035 17.4485 89.25 17.43 89.46 17.4403V21.4205C88.82 21.4401 88.22 21.2006 87.89 20.8305C87.589 20.52 87.38 20.0102 87.38 19.4006C87.38 18.7807 87.589 18.2801 87.89 17.98C88.121 17.7425 88.46 17.5749 88.829 17.4937ZM93.31 20.8408C92.98 21.2006 92.39 21.4503 91.74 21.4308V17.4506C92.145 17.4228 92.561 17.5133 92.901 17.6932C93.055 17.7754 93.195 17.8751 93.31 17.9902C93.447 18.127 93.565 18.3068 93.653 18.5196C93.758 18.7756 93.82 19.0778 93.82 19.4098C93.82 20.0205 93.61 20.5303 93.31 20.8408ZM101.461 27.2203V23.4508H101.36C100.791 23.4508 100.303 23.3747 99.888 23.2575C99.661 23.1938 99.456 23.1167 99.272 23.0334C98.746 22.7949 98.386 22.5009 98.161 22.2799C98.084 22.2059 98.007 22.1247 97.932 22.0353C97.866 21.9582 97.801 21.8749 97.74 21.7865C97.595 21.5788 97.46 21.3393 97.349 21.0659C97.225 20.7606 97.13 20.4131 97.08 20.0205C97.064 19.9022 97.053 19.7789 97.047 19.6524C97.043 19.5671 97.041 19.4797 97.041 19.3903C97.041 17.8504 97.741 16.8708 98.39 16.3506C99.16 15.74 100.31 15.4101 101.351 15.4101H101.471V11.6703H103.991V15.4101H104.111C104.431 15.4101 104.763 15.4419 105.092 15.5036C105.258 15.5344 105.424 15.5735 105.587 15.6208C105.731 15.6619 105.872 15.7092 106.009 15.7616C106.402 15.9127 106.766 16.1101 107.07 16.3506C107.721 16.8708 108.42 17.8504 108.42 19.3903C108.42 19.9557 108.332 20.4409 108.19 20.8562C108.062 21.2283 107.892 21.5439 107.704 21.8081C107.574 21.989 107.437 22.1453 107.301 22.2799C107.013 22.5616 106.507 22.9625 105.715 23.2143C105.505 23.2811 105.273 23.3377 105.022 23.3788C104.742 23.4251 104.436 23.4508 104.101 23.4508H104.001V27.2203H101.461ZM101.581 17.4403C100.991 17.4105 100.37 17.6099 100.01 17.98C99.71 18.2801 99.5 18.7807 99.5 19.4006C99.5 20.0102 99.71 20.52 100.01 20.8305C100.34 21.2006 100.941 21.4401 101.581 21.4205V17.4403ZM103.86 21.4308C104.511 21.4503 105.101 21.2006 105.431 20.8408C105.59 20.6763 105.724 20.4553 105.814 20.1932C105.894 19.9608 105.941 19.6966 105.941 19.4098C105.941 18.8003 105.731 18.2904 105.431 17.9902C105.061 17.6202 104.45 17.4105 103.86 17.4506V21.4308ZM118.04 15.5303H115.52V16.4103C114.8 15.4306 113.729 15.2703 113.07 15.2703C111.99 15.2703 111.04 15.6598 110.36 16.3404C109.64 17.0599 109.15 18.1804 109.15 19.49C109.15 20.1459 109.279 20.7976 109.585 21.4092C109.759 21.7587 109.992 22.0939 110.29 22.4105C111.15 23.3202 112.09 23.5998 113.21 23.5998C113.86 23.5998 114.84 23.4405 115.52 22.3899V23.3305H118.04V15.5303ZM111.74 19.4201C111.74 19.0953 111.809 18.8229 111.909 18.5978C112.024 18.3367 112.18 18.1403 112.32 18.0005C112.65 17.6705 113.16 17.4403 113.69 17.4506C114.15 17.4506 114.71 17.6202 115.089 17.9902C115.46 18.3397 115.67 18.8599 115.67 19.4201C115.67 20.0904 115.39 20.5807 115.06 20.8901C114.73 21.2201 114.26 21.4298 113.75 21.4298C113.15 21.4298 112.61 21.1903 112.259 20.8202C112.154 20.6999 112.029 20.5324 111.928 20.3134C111.821 20.078 111.74 19.782 111.74 19.4201ZM122.08 15.5303V19.9906L125.4 15.5303H127.741V23.3305H125.22V18.8003L121.9 23.3305H119.56V15.5303H122.08ZM126.821 12.3807C126.723 12.6726 126.58 12.945 126.406 13.1855C126.285 13.3541 126.148 13.5063 126 13.6389C125.905 13.7252 125.804 13.8023 125.7 13.8702C125.532 13.9812 125.356 14.0675 125.175 14.1354C124.967 14.2125 124.755 14.2639 124.548 14.2978C124.225 14.3502 123.913 14.3605 123.65 14.3605C123.071 14.3605 122.27 14.3101 121.601 13.8702C121.11 13.5597 120.69 13.0098 120.48 12.3807L122.23 11.7001C122.3 12.0497 122.47 12.3303 122.68 12.4999C122.795 12.5945 122.925 12.6716 123.081 12.725C123.237 12.7795 123.42 12.8103 123.64 12.8103C124.08 12.8103 124.37 12.6901 124.6 12.4999C124.707 12.4135 124.804 12.2984 124.883 12.1596C124.958 12.026 125.016 11.8718 125.05 11.7001L126.821 12.3807ZM130.3 15.5499C129.88 15.7102 129.34 15.9898 129.01 16.2006L129.99 17.8905C130.241 17.6798 130.501 17.5205 130.831 17.3807C131.161 17.2398 131.46 17.1699 131.861 17.1699C132.28 17.1699 132.53 17.2604 132.65 17.3108C132.831 17.392 132.931 17.504 132.982 17.6109C133.018 17.688 133.03 17.762 133.03 17.8206C133.03 17.9707 132.961 18.1999 132.66 18.3397C132.579 18.3778 132.471 18.4055 132.355 18.4261C132.129 18.4672 131.872 18.4806 131.72 18.4806H131V20.1901H131.94C132.22 20.1901 132.64 20.2404 132.851 20.3299C132.949 20.373 133.031 20.4275 133.093 20.4964C133.174 20.5869 133.221 20.702 133.221 20.85C133.221 20.9641 133.198 21.1132 133.094 21.2499C133.042 21.3177 132.97 21.3835 132.87 21.4401C132.62 21.5799 132.24 21.6302 131.96 21.6302C131.695 21.6302 131.405 21.5881 131.144 21.5213C131.001 21.4843 130.868 21.4401 130.75 21.3907C130.44 21.2499 130.07 21.0001 129.79 20.7606L128.72 22.4207C128.819 22.4999 128.981 22.6274 129.197 22.7672C129.298 22.8319 129.409 22.8998 129.53 22.9666C129.707 23.0632 129.905 23.1578 130.12 23.24C130.82 23.5001 131.55 23.5906 132.25 23.5906C133.551 23.5906 134.46 23.4004 135.12 22.7507C135.379 22.4906 135.551 22.2131 135.657 21.9325C135.759 21.6611 135.8 21.3856 135.8 21.1204C135.8 21.0515 135.798 20.9837 135.792 20.9179C135.787 20.8757 135.783 20.8336 135.777 20.7925L135.763 20.7061C135.699 20.3813 135.55 20.0934 135.281 19.8303C135.171 19.7203 134.81 19.4098 134.23 19.27C134.29 19.2485 134.348 19.2217 134.406 19.1919C134.454 19.1672 134.5 19.1395 134.547 19.1097L134.606 19.0696C134.647 19.0408 134.688 19.01 134.727 18.9781C134.784 18.9318 134.839 18.8815 134.89 18.8301C135.27 18.4302 135.36 17.9902 135.36 17.4999C135.36 17.3508 135.348 17.2038 135.322 17.061C135.307 16.9828 135.288 16.9057 135.263 16.8297C135.177 16.5593 135.025 16.3044 134.78 16.07C133.991 15.3001 132.561 15.2703 132.14 15.2703C131.54 15.2703 130.89 15.3402 130.3 15.5499ZM144.92 19.8704H139.1C139.1 20.0153 139.119 20.1777 139.157 20.3422C139.229 20.6527 139.368 20.9713 139.57 21.1995C139.67 21.3105 139.781 21.3979 139.897 21.4647C139.978 21.512 140.063 21.5501 140.147 21.5799C140.397 21.6693 140.651 21.6899 140.859 21.6899C140.999 21.6899 141.14 21.6796 141.276 21.659C141.499 21.6241 141.707 21.5593 141.87 21.4596C141.9 21.4401 142.2 21.2499 142.41 20.8099L144.79 21.0505C144.44 22.1504 143.74 22.7302 143.289 23.0098C142.54 23.46 141.7 23.5895 140.82 23.5895C139.649 23.5895 138.619 23.3798 137.71 22.4701C137.03 21.7896 136.54 20.7596 136.54 19.4602C136.54 18.3397 136.94 17.1905 137.73 16.3804C138.198 15.9117 138.726 15.6321 139.245 15.4697C139.769 15.3052 140.283 15.26 140.72 15.26C141.59 15.26 142.85 15.4203 143.82 16.4298C144.75 17.4105 144.92 18.6296 144.92 19.6V19.8704ZM142.6 18.3696C142.58 18.2997 142.46 17.8103 142.09 17.4598C141.987 17.3642 141.868 17.2799 141.733 17.211C141.646 17.1658 141.552 17.1278 141.451 17.098C141.285 17.0476 141.101 17.0198 140.899 17.0198C140.683 17.0198 140.497 17.0486 140.335 17.0959C140.011 17.1915 139.786 17.3632 139.62 17.5297C139.429 17.7404 139.25 18.02 139.18 18.3696H142.6ZM148.579 15.5303H146.06V23.3305H148.579V20.2703H151.4V23.3305H153.92V15.5303H151.4V18.24H148.579V15.5303Z" fill="white"/>
<path d="M50 37.44C50 42.3 47.3 45 42.44 45H17.56C12.7 45 10 42.3 10 37.44V12.56C10 7.7 12.7 5 17.56 5H42.45C47.3 5 50 7.7 50 12.56V37.44Z" fill="#FFE600"/>
<path d="M36.04 23.4049V19.5849L37.42 18.2049V21.5149L38.62 22.7149L43.45 17.8849L44.64 19.0749C44.63 18.1749 44.45 15.5649 42.24 13.3949C39.86 11.0949 37.28 12.1349 36.4 13.0149L31.58 17.8349L32.81 19.0649L30.32 21.5749L27.83 19.0849L29.06 17.8549L24.24 13.0349C23.36 12.1549 20.78 11.1149 18.4 13.4149C16.19 15.5849 16.01 18.1949 16 19.0949L17.19 17.9049L22.02 22.7349L23.22 21.5349V18.2249L24.6 19.6049V23.4249L26.54 25.3549L16.98 34.9149L20.76 38.6849L30.32 29.1349L39.88 38.6949L43.66 34.9249L34.1 25.3549L36.04 23.4049Z" fill="#2B2D34"/>
</svg>
