<svg width="200" height="50" viewBox="0 0 200 50" fill="none" xmlns="http://www.w3.org/2000/svg">
<path d="M90.5 19.5004L94.3 16.7004H81.7V33.3004H94.3V30.5004H85.3V26.3004H92.9V23.5004H85.3V19.5004H90.5ZM74.8 19.5004L78.6 16.7004H64.2V33.3004H71.7C75.9 33.3004 78.3 31.4004 78.3 28.1004C78.3 24.9004 76.1 23.2004 72.1 23.2004H67.7V19.5004H74.8ZM71.6 25.9004C73.9 25.9004 74.9 26.7004 74.9 28.2004C74.9 29.7004 73.8 30.5004 71.6 30.5004H67.8V25.9004H71.6ZM104.4 16.7004H97.6V33.3004H101.2V28.6004H104.5C108.9 28.6004 111.6 26.3004 111.6 22.6004C111.6 18.9004 108.8 16.7004 104.4 16.7004ZM104.4 25.8004H101.2V19.4004H104.4C106.7 19.4004 108 20.5004 108 22.6004C107.9 24.7004 106.7 25.8004 104.4 25.8004ZM58.1 29.7004C57.1 30.2004 56.1 30.5004 55 30.5004C51.8 30.5004 49.4 28.2004 49.4 25.0004C49.4 21.8004 51.7 19.5004 55 19.5004C56.2 19.5004 57.3 19.9004 58.3 20.5004L60.9 18.6004L60.7 18.4004C59.2 17.1004 57.2 16.4004 54.9 16.4004C52.4 16.4004 50.2 17.2004 48.5 18.8004C46.9 20.4004 45.9 22.6004 46 24.9004C46 27.2004 46.9 29.4004 48.5 31.1004C50.2 32.7004 52.5 33.6004 54.8 33.5004C57.4 33.5004 59.6 32.6004 61.2 31.0004L58.9 29.3004L58.1 29.7004ZM166 23.5004H158.3V16.7004H154.7V33.3004H158.3V26.5004H166V33.3004H169.6V16.7004H166V23.5004ZM141.7 16.7004L134.5 33.3004H138.1L139.5 30.0004H147.1L148.5 33.3004H152.3L145.3 16.7004H141.7ZM140.7 27.2004L143.5 20.5004L146.1 27.2004H140.7ZM182.6 24.7004L189.1 16.7004H185L179.6 23.8004H177.6V16.7004H174V33.3004H177.6V26.6004H179.9L185.4 33.3004H190L182.6 24.7004ZM127 23.2004H122.6V19.5004H132V16.7004H119V33.3004H126.5C130.7 33.3004 133.1 31.4004 133.1 28.1004C133.2 24.9004 131 23.2004 127 23.2004ZM126.4 30.6004H122.6V26.0004H126.4C128.7 26.0004 129.7 26.8004 129.7 28.3004C129.8 29.8004 128.6 30.6004 126.4 30.6004Z" fill="white"/>
<path d="M34.4811 16.3813C35.1303 17.2319 35.6799 18.1561 36.1187 19.1352L23.6698 28.4354L18.4671 25.1302V21.1538L23.6698 24.459L34.4811 16.3813Z" fill="white"/>
<path d="M13.1573 24.8494C13.1573 24.671 13.1616 24.4938 13.1702 24.3175L10.0172 24.1609C10.0064 24.3893 10 24.6199 10 24.8527C9.99866 26.671 10.3516 28.4717 11.0385 30.1514C11.7254 31.8312 12.7328 33.357 14.003 34.6413L16.2395 32.3758C15.2618 31.3889 14.4862 30.2159 13.9572 28.9243C13.4283 27.6327 13.1564 26.2478 13.1573 24.8494Z" fill="white"/>
<path d="M23.6669 14.1993C23.8429 14.1993 24.0178 14.2058 24.1916 14.2145L24.3494 11.018C24.1234 11.0071 23.8958 11.0017 23.6669 11.0017C21.8718 10.9994 20.0941 11.3566 18.4357 12.0526C16.7773 12.7486 15.2708 13.7697 14.0029 15.0574L16.2394 17.324C17.2132 16.3328 18.3707 15.5465 19.6454 15.0103C20.9201 14.474 22.2867 14.1984 23.6669 14.1993Z" fill="white"/>
<path d="M23.6669 35.5008C23.4909 35.5008 23.316 35.5008 23.1411 35.4867L22.9833 38.6821C23.2101 38.6937 23.438 38.6996 23.6669 38.6996C25.4612 38.7014 27.2381 38.3441 28.8956 37.6479C30.5532 36.9517 32.0586 35.9304 33.3256 34.6427L31.0934 32.3772C30.1194 33.3679 28.962 34.1538 27.6876 34.6898C26.4132 35.2259 25.0468 35.5015 23.6669 35.5008Z" fill="white"/>
<path d="M29.591 16.0575L32.2482 14.0725C29.8195 12.0794 26.7879 10.9945 23.6627 11V14.1987C25.7789 14.1961 27.846 14.8442 29.591 16.0575Z" fill="white"/>
<path d="M37.3329 24.8499C37.3346 24.0178 37.2628 23.1872 37.1182 22.368L34.1767 24.565C34.1767 24.6597 34.1767 24.7543 34.1767 24.8499C34.1774 26.3381 33.8696 27.8099 33.2733 29.1697C32.6768 30.5296 31.8051 31.7473 30.7146 32.7439L32.8363 35.1204C34.254 33.8233 35.3869 32.2387 36.1615 30.4695C36.9362 28.7002 37.3353 26.7856 37.3329 24.8499Z" fill="white"/>
<path d="M23.667 35.5014C22.1985 35.5019 20.7462 35.1898 19.4042 34.5854C18.0623 33.981 16.8605 33.0976 15.8768 31.9927L13.533 34.1418C14.8127 35.5788 16.3761 36.7272 18.122 37.5125C19.8678 38.2977 21.7569 38.7023 23.667 38.7V35.5014Z" fill="white"/>
<path d="M16.6194 16.9557L14.4988 14.5793C13.0806 15.8761 11.9473 17.4606 11.1723 19.2299C10.3973 20.9992 9.99788 22.9138 9.99999 24.8497H13.1573C13.1566 23.3616 13.4645 21.8898 14.0609 20.5299C14.6573 19.1701 15.529 17.9524 16.6194 16.9557Z" fill="white"/>
</svg>
