<svg width="200" height="50" viewBox="0 0 200 50" fill="none" xmlns="http://www.w3.org/2000/svg">
<path d="M58.1184 22.3659L58.7625 20.3431L56.6675 20.4094C55.6863 20.3732 54.7411 20.0421 53.9465 19.4582H54.2294C55.5057 19.4522 56.6736 18.7237 57.2394 17.5799L58.1605 15.6114C57.4381 15.6174 56.7157 15.5752 55.9993 15.4849C55.313 15.3224 54.699 14.9492 54.2354 14.4194C53.6093 13.7512 52.7425 13.3719 51.8274 13.3659C51.4722 13.3659 51.117 13.4261 50.7739 13.5344C50.8221 13.3719 50.8642 13.2094 50.8943 13.0408C51.0388 11.8669 50.7077 10.6809 49.9792 9.74782L48.3899 7.7913L47.4147 10.0789C47.2582 10.404 47.0234 10.687 46.7224 10.8916C46.5538 10.0729 46.1565 9.32642 45.5665 8.73645C44.5793 7.72508 43.2247 7.1592 41.81 7.17124C41.5632 7.17124 41.3164 7.1893 41.0756 7.22542L39.1732 7.59866C39.3358 6.96053 39.5946 6.35251 39.9438 5.79264L40.9913 4.1612L38.3545 4.40803L37.5117 2.60201L35.8863 3.48696L34.3813 2L32.8762 3.48696L31.2508 2.64415L30.408 4.40803L27.7712 4.10702L28.8187 5.74448C29.1679 6.30435 29.4267 6.91237 29.5893 7.5505L27.7833 7.19532H27.7231C27.4702 7.1592 27.2174 7.14114 26.9645 7.14114C25.5498 7.1291 24.1953 7.69498 23.208 8.70635C22.612 9.30234 22.2027 10.0609 22.0401 10.8916C21.7512 10.693 21.5164 10.4221 21.3599 10.103L20.3786 7.79732L18.7773 9.75986C18.0609 10.693 17.7418 11.8729 17.8803 13.0408C17.9104 13.2094 17.9525 13.3719 18.0007 13.5344C17.6575 13.4261 17.3023 13.3659 16.9472 13.3659C16.0321 13.3719 15.1652 13.7512 14.5391 14.4194C14.0816 14.9431 13.4736 15.3164 12.7933 15.4849C12.0709 15.5933 11.3365 15.6354 10.602 15.6114L11.499 17.61C12.0649 18.7538 13.2328 19.4823 14.509 19.4883H14.792C14.0094 20.0602 13.0763 20.3913 12.107 20.4334L10 20.3431L10.6441 22.3659C11.1258 23.9492 12.4923 25.111 14.1358 25.3217C13.9672 26.3873 13.293 27.3084 12.3298 27.79L10.7164 28.4461L11.5833 29.9572C12.2997 31.0709 13.5338 31.7331 14.8522 31.7211C15.1953 31.7211 15.5385 31.6849 15.8756 31.6127C15.9599 31.9799 16.0682 32.3471 16.1886 32.7023C16.4896 33.497 16.5077 34.3639 16.2488 35.1706L15.4662 36.814L17.2181 37.2776C17.6094 37.3799 18.0187 37.4281 18.4221 37.4281C18.711 37.4281 18.994 37.398 19.2769 37.3318C19.4816 37.2836 19.6863 37.2234 19.8789 37.1451C20.1017 37.5485 20.3846 37.9217 20.7037 38.2528C21.8234 39.4027 23.4127 39.9866 25.4294 39.9866H26.8682L23.9003 41.2207L26.1518 42.3344C27.0609 42.7799 27.988 43.1833 28.9331 43.5384L28.6622 44.3211L29.4388 44.6762C30.7271 45.1819 32.0936 45.4649 33.4783 45.513H35.3264C36.705 45.4649 38.0655 45.1759 39.3478 44.6702L40.1003 44.3211L39.8354 43.5384C40.7926 43.1712 41.7318 42.7558 42.6468 42.2923L44.8562 41.2207L41.8943 40.0167H43.3391C45.3558 40.0167 46.9512 39.4147 48.0649 38.2829C48.3899 37.9518 48.6669 37.5786 48.8896 37.1752C49.0823 37.2535 49.2869 37.3137 49.4916 37.3619C49.7746 37.4281 50.0575 37.4582 50.3465 37.4582C50.7498 37.4582 51.1592 37.404 51.5505 37.3077L53.3083 36.8441L52.5438 35.2308C52.2548 34.412 52.2669 33.515 52.5739 32.7023C52.7003 32.3351 52.8027 31.9619 52.8869 31.5886C53.2241 31.6609 53.5732 31.697 53.9164 31.697C55.2468 31.709 56.4869 31.0227 57.1913 29.891L58.0461 28.398L56.4568 27.7478C55.4936 27.2662 54.8194 26.3451 54.6508 25.2796C56.2943 25.0629 57.6609 23.907 58.1425 22.3177L58.1184 22.3659V22.3659Z" fill="white"/>
<path d="M41.6175 28.7592H27.1693V34.1772C27.1693 36.4047 28.7767 37.7893 31.1546 37.7893C33.1412 37.7893 33.665 37.8675 34.3994 38.602C34.863 38.1023 35.5191 37.8194 36.2054 37.8314V37.7471L36.663 36.3384L35.8864 35.4896C35.5733 35.5859 35.2482 35.6221 34.9232 35.604C34.4355 35.598 33.9539 35.5498 33.4783 35.4535H33.3278C33.2616 35.4535 33.2616 35.4535 33.2436 35.4896L33.1533 35.6401L32.9907 35.911L32.6777 35.8388L31.287 35.5137L31.0944 35.8267V35.8629L31.263 36.0495L31.1907 36.2903C31.0643 36.5853 30.8837 36.8501 30.6549 37.0789L30.3058 37.4522L29.9867 37.0548L29.7519 36.7598C29.4991 36.4287 29.4389 35.9953 29.5834 35.604L29.1921 35.7665L29.0175 35.3813L28.9212 35.1103C28.6743 34.5384 28.8609 33.8762 29.3606 33.515L30.4803 32.913L31.5459 33.1237C31.5459 33.0214 31.6121 32.6542 31.6422 32.5639H31.582L30.98 32.7926L30.378 32.3833C30.2576 32.2629 30.2516 32.0642 30.378 31.9378L30.9499 31.0709L29.4991 29.2649L31.6723 30.1197L31.8228 29.9391L32.1238 29.5779L32.467 29.903C32.5573 29.9933 32.6175 30.1017 32.6476 30.2281C33.2496 30.4689 34.3633 31.1732 34.4536 32.317L34.1104 32.4555C34.1526 32.5157 34.2068 32.5639 34.273 32.594L35.8623 32.7505L36.0068 32.7083C36.2777 32.606 36.5666 32.5518 36.8556 32.5458C37.1446 32.5458 37.4275 32.612 37.6864 32.7384C37.8007 32.6963 37.9272 32.6722 38.0476 32.6662H38.1258C38.9747 32.6662 39.4021 33.3043 39.7392 33.81L39.9138 34.0629C40.2088 34.4843 40.6001 35.0983 40.6181 35.1224L40.7927 35.3933L40.576 35.6461C40.3773 35.911 40.0643 36.0615 39.7332 36.0615C39.6369 36.0675 39.5405 36.0675 39.4442 36.0615C39.3599 36.0435 39.2757 36.0194 39.1914 35.9833C39.1914 36.0675 39.1914 36.1699 39.1432 36.2542L38.8964 37.6749C40.5339 37.3438 41.6897 35.8749 41.6235 34.2013L41.6175 28.7592V28.7592ZM27.1513 28.3197H38.4028C37.9452 27.8381 37.7887 27.1458 37.9934 26.5137C37.8429 26.4415 37.6984 26.3451 37.572 26.2368C37.1325 26.5619 35.766 27.5371 35.4409 27.7839L35.3687 27.8321L30.9499 27.0495H30.8596C30.7151 27.0555 30.5707 27.0555 30.4262 27.0495C30.384 27.2481 30.2095 27.3866 30.0108 27.3866H29.9386C29.7038 27.3445 29.5412 27.1217 29.5774 26.8869V26.7906C29.0054 26.3813 28.7345 25.6709 28.885 24.9846V24.9063L28.9513 24.8582C28.9513 24.8582 29.0355 24.798 29.1499 24.7318L28.8309 24.6836C28.7105 24.6595 28.6322 24.5512 28.6503 24.4308C28.6683 24.3104 28.7767 24.2321 28.8971 24.2502H28.9031L29.6677 24.3706L29.7399 21.6796L30.8777 20.4756L31.5881 21.9685L30.8416 24.5572L31.5158 24.6655C31.6362 24.6896 31.7145 24.798 31.6964 24.9184C31.6784 25.0267 31.5881 25.099 31.4797 25.099H31.4436L30.8957 25.0087V25.0508C30.9559 25.1592 31.0463 25.2435 31.1606 25.2976L34.5258 25.3518L35.3867 24.503C34.7305 24.2742 34.261 23.6963 34.1827 23.004C33.7613 22.8415 33.4182 22.5284 33.2255 22.1251C33.063 21.7458 33.0329 21.3184 33.1473 20.9211C32.6175 20.7104 32.1359 20.3913 31.7446 19.9819H26.7479C26.9887 20.5719 27.1272 21.198 27.1513 21.8301V28.3197V28.3197Z" fill="#FCE527"/>
<path d="M65.9865 23.6722H70.947V32.1003H74.559V23.6722H79.5196V20.614H65.9865V23.6722ZM84.2875 27.2843V20.6622H80.7959V32.1003H83.8782L89.8982 25.406V32.1003H93.3899V20.614H90.3076L84.2875 27.2843V27.2843ZM105.015 24.8762H99.4039V20.6622H95.9122V32.1003H99.4039V27.814H105.015V32.1003H108.506V20.6622H105.015V24.8762V24.8762ZM120.685 23.9853C119.86 23.7324 118.993 23.6301 118.132 23.6722H114.52V20.6622H111.029V32.1003L118.108 32.0522C118.849 32.0642 119.583 31.9799 120.3 31.7873C122.118 31.3418 123.37 29.6863 123.31 27.814C123.382 26.0983 122.316 24.5331 120.685 23.9853V23.9853ZM118.903 29.1625C118.463 29.313 117.994 29.3732 117.53 29.3311H114.52V26.4174H117.53C117.982 26.3873 118.439 26.4415 118.879 26.5619C119.433 26.7244 119.806 27.2361 119.794 27.814C119.8 28.404 119.451 28.9398 118.903 29.1625V29.1625ZM137.938 20.6622H133.556L129.342 24.9726H128.379V20.6622H124.887V32.1003H128.379V27.7659H129.342L133.508 32.1003H138.155L132.352 26.0803L137.938 20.6622Z" fill="#222220"/>
<path d="M145.452 20.301C140.732 20.301 137.914 22.9498 137.914 26.3692C137.914 29.7886 140.756 32.4374 145.427 32.4374C150.099 32.4374 152.916 29.7886 152.916 26.3692C152.916 22.9498 150.171 20.301 145.452 20.301V20.301ZM145.427 29.6441C143.092 29.6441 141.599 28.2475 141.599 26.3692C141.599 24.491 143.116 23.1184 145.427 23.1184C147.739 23.1184 149.256 24.491 149.256 26.3692C149.256 28.2475 147.763 29.6441 145.427 29.6441ZM164.421 21.1197V19.9639H160.929V21.1197C156.546 21.216 153.922 23.0702 153.922 26.3451C153.922 29.6201 156.546 31.3298 160.929 31.4261V32.5819H164.421V31.4261C168.827 31.3298 171.452 29.6201 171.452 26.3451C171.452 23.0702 168.833 21.216 164.421 21.1197V21.1197ZM160.929 28.9699C158.521 28.8736 157.461 27.8863 157.461 26.3451C157.461 24.804 158.521 23.6963 160.929 23.6V28.9699ZM164.421 28.9699V23.6C166.853 23.6963 167.888 24.804 167.888 26.3451H167.894C167.894 27.8863 166.859 28.8736 164.421 28.9699ZM182.968 21.1197V19.9639H179.477V21.1197C175.094 21.216 172.469 23.0702 172.469 26.3451C172.469 29.6201 175.094 31.3298 179.477 31.4261V32.5819H182.968V31.4261C187.375 31.3298 190 29.6201 190 26.3451C190 23.0702 187.375 21.216 182.968 21.1197V21.1197ZM179.477 28.9699C177.069 28.8736 176.009 27.8863 176.009 26.3451C176.009 24.804 177.069 23.6963 179.477 23.6V28.9699ZM186.43 26.3451C186.43 27.8863 185.401 28.8736 182.968 28.9699V23.6C185.401 23.6963 186.436 24.804 186.436 26.3451H186.43ZM31.7686 31.1251C31.6963 31.1251 31.6301 31.1793 31.6241 31.2515V31.2575C31.6181 31.3358 31.6783 31.408 31.7565 31.414H31.7625C31.8468 31.414 31.907 31.3478 31.907 31.2696C31.907 31.1853 31.8468 31.1251 31.7686 31.1251ZM31.7626 31.119C31.7686 31.119 31.7686 31.1251 31.7686 31.1251C31.7746 31.1251 31.7746 31.119 31.7806 31.119H31.7626ZM41.5993 40.992L40.7685 40.6729L40.9973 39.812L41.2501 38.8729C40.1123 39.4568 38.9204 39.9264 37.6923 40.2756C37.0903 40.4441 36.6568 40.5224 36.6568 40.5224V41.1304C35.9164 41.2508 35.1699 41.317 34.4174 41.3231H34.3511C33.5986 41.317 32.8521 41.2508 32.1117 41.1304V40.5284C32.1117 40.5284 31.6722 40.4441 31.0702 40.2756C29.8421 39.9264 28.6501 39.4568 27.5123 38.8729L27.7592 39.812L27.9939 40.6729L27.1572 40.992L26.2542 41.3351C27.4943 41.9792 28.7886 42.515 30.1251 42.9364L29.806 43.8033C31.2568 44.3572 32.81 44.6281 34.3632 44.592H34.3993C35.9525 44.6281 37.5057 44.3572 38.9565 43.8033L38.6434 42.9364C39.9739 42.515 41.2682 41.9792 42.5083 41.3351L41.5993 40.992ZM27.2595 41.3893L28.608 40.9378L28.2047 39.6134C29.0896 40.0528 30.0047 40.4201 30.9498 40.709L30.2876 42.515C29.2461 42.2381 28.2287 41.8589 27.2595 41.3893V41.3893ZM34.4174 44.1645L34.3873 44.1405C33.0628 44.1344 31.7444 43.9538 30.4682 43.6047L31.2809 41.4013C32.2923 41.6542 33.3337 41.7926 34.3812 41.7986H34.4475C35.495 41.7866 36.5364 41.6542 37.5478 41.4013L38.3605 43.6047C37.0782 43.9659 35.7478 44.1525 34.4174 44.1645V44.1645ZM38.523 42.5512V42.5331L37.8608 40.7271C38.806 40.4381 39.721 40.0709 40.606 39.6314L40.2026 40.9558L41.5692 41.4134C40.5939 41.889 39.5705 42.2742 38.523 42.5512ZM34.3812 6.62943C35.7417 6.59331 37.0782 7.00267 38.1858 7.7913C38.3604 6.90033 38.6915 6.04548 39.1671 5.26889L37.8006 5.42541L37.0902 3.90234L35.7116 4.61271L34.3812 3.29431L33.0507 4.61271L31.6721 3.90234L30.9618 5.42541L29.5952 5.26889C30.0708 6.04548 30.4019 6.90033 30.5765 7.7913C31.6842 7.00267 33.0206 6.59331 34.3812 6.62943V6.62943ZM30.9016 5.95518L31.2808 5.99732L31.4434 5.65418L31.919 4.63077L32.8039 5.08829L33.1471 5.26287L33.424 5.01003L34.3812 4.0408L35.3384 5.01003L35.6153 5.28093L35.9584 5.10635L36.8374 4.64883L37.319 5.67224L37.4815 6.01538L37.8608 5.97324L38.222 5.9311C38.0775 6.2622 37.9511 6.60535 37.8487 6.95451C35.6755 5.8408 33.0929 5.8408 30.9196 6.95451C30.8173 6.60535 30.6909 6.2622 30.5464 5.9311L30.9016 5.95518V5.95518ZM52.2368 19.0548L52.0742 18.8562C50.9545 17.4294 49.8889 16.0749 47.9866 15.4548C48.0649 15.3886 48.1431 15.3284 48.2274 15.2742C49.1304 14.7625 49.7685 13.8836 49.9732 12.8662C50.0756 11.9451 49.8167 11.0241 49.2508 10.2896L48.6488 9.53712L48.2695 10.4341C48.2695 10.4883 47.6013 11.9271 46.2528 11.9271H45.8555C45.9277 10.9819 45.5846 10.0488 44.9164 9.37458C44.1037 8.54381 42.9839 8.08027 41.8221 8.08629C41.6053 8.08629 41.3886 8.10435 41.1779 8.13445L40.2568 8.31505L40.8287 9.06756C41.2742 9.66956 41.6776 10.711 41.202 11.2709C40.9732 11.4696 40.7144 11.6261 40.4314 11.7344C39.8294 12.0174 38.9625 12.4207 38.9625 13.4321C38.9625 14.0883 39.4742 14.7746 40.3953 15.3585C43.1103 17.0803 44.7899 18.8562 45.5184 20.8548C46.6441 23.901 45.1752 25.6348 43.7485 26.5498L43.1103 26.9592L43.6702 27.4709C44.1699 27.8983 44.7839 28.1632 45.4401 28.2294H45.9879C46.5478 28.2294 47.1017 28.1512 47.6374 27.9886C47.505 28.2234 47.3425 28.4461 47.1679 28.6508C46.3552 29.596 45.1511 30.1137 43.905 30.0475H43.3692L43.3271 30.5833C43.3211 31.3358 43.6522 32.0461 44.2241 32.5338C44.3746 32.6662 44.5431 32.7746 44.7237 32.8588C43.8328 33.7257 43.3271 34.9117 43.309 36.1578C43.309 36.8381 43.1525 37.5124 42.8575 38.1264L42.2555 39.0294H43.3271C45.097 39.0294 46.4515 38.5418 47.3906 37.5726C47.8782 37.0609 48.2394 36.4408 48.4501 35.7665C48.7993 36.0615 49.2087 36.2662 49.6542 36.3685C49.8649 36.4167 50.0816 36.4408 50.2983 36.4408C50.6234 36.4408 50.9485 36.3986 51.2615 36.3264L51.9478 36.1458L51.6468 35.5077C51.2675 34.4903 51.2675 33.3645 51.6468 32.3471C51.8695 31.6849 52.0261 30.9986 52.1103 30.3003C52.6521 30.5772 53.2542 30.7157 53.8622 30.7097C54.8615 30.7217 55.7946 30.2281 56.3364 29.3913L56.6675 28.7893L56.0655 28.5364C54.0488 27.6997 53.6033 25.4482 53.513 24.2321C53.7117 24.2742 53.9103 24.2983 54.115 24.3043L54.2836 24.4187C56.4749 24.4187 57.2093 22.1853 57.2394 22.089L57.4863 21.3003H56.6615C54.9277 21.2401 53.3083 20.4214 52.2368 19.0548V19.0548ZM54.2896 23.8107H54.2053C53.7659 23.8167 53.3324 23.6963 52.9592 23.4676C52.9592 23.4676 52.6401 27.8201 55.8849 29.1686V29.1866C55.4575 29.8368 54.7231 30.2221 53.9465 30.21C53.0675 30.2642 52.2187 29.891 51.6649 29.2107C51.6829 30.2341 51.5144 31.2575 51.1712 32.2207C50.7317 33.3826 50.7317 34.6709 51.1712 35.8328C50.9003 35.899 50.6294 35.9351 50.3525 35.9351C50.1839 35.9351 50.0093 35.917 49.8468 35.8749C49.0461 35.6823 48.408 35.0923 48.1491 34.3157C48.1491 34.3157 48.2756 38.4936 43.4053 38.4936H43.3692C43.7364 37.7953 43.9291 37.0187 43.9231 36.2301C44.1338 33.1418 46.2287 32.7023 46.2287 32.7023C45.6508 32.6301 45.103 32.4254 44.6214 32.1003C44.1819 31.7331 43.9291 31.1913 43.917 30.6194C45.3257 30.6796 46.6863 30.0956 47.6073 29.0241C48.1612 28.392 48.5284 27.6214 48.6849 26.7966C47.9083 27.3806 46.9511 27.6756 45.9819 27.6334H45.4883C44.9645 27.5793 44.4649 27.3746 44.0615 27.0314C45.9157 25.8274 47.216 23.7686 46.0662 20.6441C45.1391 18.1398 42.9177 16.2676 40.6843 14.8589C39.9438 14.4013 39.4983 13.8836 39.4983 13.4381C39.4983 12.3906 40.9853 12.3605 41.5993 11.6321C42.3037 10.8134 41.8642 9.48896 41.2501 8.69431C41.4247 8.66421 41.6053 8.65217 41.7799 8.65217C42.7853 8.64013 43.7545 9.04348 44.4528 9.76588C45.1632 10.4401 45.4341 11.4575 45.1632 12.3967L45.4883 12.4629C45.6869 12.499 45.8856 12.5171 46.0903 12.5231H46.2227C47.9866 12.5231 48.7812 10.6749 48.7812 10.6749C48.7812 10.6749 50.6595 12.9866 47.8963 14.7926C47.4207 15.0997 47.21 15.3946 47.2943 15.6956L47.3364 15.8943L47.5351 15.9304C49.5398 16.4722 50.5451 17.8569 51.7913 19.4281C52.9712 20.9271 54.7532 21.8301 56.6615 21.8963H56.6976C56.6976 21.8963 56.0956 23.8107 54.2896 23.8107V23.8107Z" fill="#222220"/>
<path d="M50.4246 15.7257C51.0988 16.111 51.6828 16.6348 52.1403 17.2609C52.4835 17.7906 52.9711 18.212 53.549 18.4649C53.7657 18.5371 54.0005 18.5732 54.2293 18.5732C55.1503 18.5732 55.9932 18.0495 56.4146 17.2308L56.7637 16.4482L55.9149 16.4C54.9998 16.2314 54.1751 15.7619 53.5671 15.0575C53.1156 14.5699 52.4835 14.2869 51.8152 14.2809C51.2975 14.2869 50.7978 14.4435 50.3644 14.7204L49.5818 15.2682L50.4246 15.7257ZM51.8333 14.8649L51.8152 14.8709C52.3269 14.8709 52.8085 15.0936 53.1517 15.4729C53.856 16.2796 54.8192 16.8154 55.8788 16.99C55.5537 17.598 54.9216 17.9772 54.2293 17.9833C54.0607 17.9833 53.8922 17.9532 53.7296 17.899C52.7544 17.5679 52.4112 16.093 50.7196 15.202C51.0507 14.9853 51.436 14.8709 51.8333 14.8649V14.8649ZM50.8219 23.4856L50.8099 23.4736C50.3163 19.5003 47.4326 16.6288 44.224 14.889C43.929 14.7264 43.652 14.594 43.3872 14.4676C44.7116 14.7385 46.0902 14.4134 47.1557 13.5826C47.1557 13.5826 45.2955 14.9492 41.4908 13.709C42.5444 14.3953 44.5912 15.3585 46.4634 16.9237C51.135 21.0294 47.7939 25.0388 47.7939 25.0388C49.1905 23.7144 49.6781 21.6916 49.052 19.8736C50.0393 21.517 50.5149 23.4194 50.4126 25.3338C50.2801 28.4883 48.5283 31.2455 46.7223 33.4428C46.1805 34.1351 45.8072 34.9478 45.6507 35.8147C45.9577 34.9538 46.4213 34.1592 47.0233 33.4729C48.9798 31.1793 50.6353 28.8013 50.8701 25.3759C51.0748 25.9779 51.9056 27.7298 53.23 28.3859C53.23 28.3859 51.5684 27.3866 50.8219 23.4856V23.4856ZM25.8989 38.1686C25.6099 37.5545 25.4534 36.8803 25.4474 36.2C25.4293 34.9538 24.9176 33.7679 24.0266 32.901C24.2072 32.8167 24.3758 32.7084 24.5263 32.5759C25.0982 32.0883 25.4293 31.3779 25.4233 30.6254L25.3872 30.0896H24.8453C23.6052 30.1498 22.4012 29.6381 21.5885 28.693C21.4139 28.4883 21.2574 28.2655 21.1189 28.0308C21.6547 28.1933 22.2086 28.2716 22.7684 28.2716H23.3163C23.9724 28.2053 24.5925 27.9405 25.0922 27.513L25.652 27.0013L25.0139 26.592C23.5811 25.6769 22.1183 23.9431 23.244 20.897C23.9724 18.9164 25.652 17.1284 28.3912 15.4067C29.3122 14.8047 29.8179 14.1365 29.8179 13.4803C29.8179 12.4689 28.9691 12.0656 28.349 11.7826C28.0661 11.6742 27.8072 11.5177 27.5785 11.3191C27.0969 10.7592 27.5002 9.69364 27.9517 9.11571L28.5537 8.3632L27.6266 8.1826C27.4159 8.14648 27.1992 8.13444 26.9825 8.13444C25.8086 8.09832 24.6768 8.54983 23.846 9.37457C23.1658 10.0428 22.8106 10.9819 22.8768 11.9331H22.5156C21.1611 11.9331 20.5229 10.5003 20.4989 10.4401L20.1196 9.54314L19.5176 10.2957C18.9577 11.0301 18.6989 11.9512 18.8012 12.8722C19.0059 13.8896 19.638 14.7686 20.541 15.2803C20.6253 15.3344 20.7096 15.3946 20.7818 15.4609C18.8795 16.0629 17.8139 17.4355 16.6942 18.8622L16.5316 19.0669C15.4601 20.4334 13.8347 21.2522 12.1009 21.3124H11.2761L11.529 22.101C11.529 22.1973 12.2875 24.4308 14.4848 24.4308H14.5932C14.7979 24.4247 14.9965 24.4007 15.1952 24.3585C15.1049 25.5625 14.6594 27.8261 12.6367 28.6629L12.0347 28.9157L12.3658 29.5177C12.9076 30.3545 13.8407 30.8482 14.84 30.8361C15.448 30.8421 16.044 30.7037 16.5858 30.4268C16.6701 31.1251 16.8266 31.8114 17.0494 32.4736C17.4286 33.491 17.4286 34.6167 17.0494 35.6341L16.7484 36.2722L17.4346 36.4528C17.7477 36.5251 18.0728 36.5672 18.3979 36.5672C18.6146 36.5672 18.8313 36.5431 19.042 36.495C19.4875 36.3926 19.8969 36.188 20.246 35.893C20.4567 36.5672 20.8179 37.1873 21.3056 37.699C22.2507 38.6682 23.6052 39.1498 25.3691 39.1558H26.4407L25.8989 38.1686V38.1686ZM25.3811 38.5057C20.5109 38.5057 20.6313 34.3278 20.6313 34.3278C20.3724 35.1043 19.7343 35.6943 18.9336 35.887C18.7711 35.9291 18.5965 35.9472 18.428 35.9472C18.151 35.9472 17.8801 35.911 17.6153 35.8448C18.0547 34.6829 18.0547 33.3946 17.6153 32.2328C17.2721 31.2696 17.1096 30.2462 17.1276 29.2227C16.5738 29.903 15.725 30.2763 14.846 30.2221H14.8159C14.0333 30.2341 13.2989 29.8428 12.8714 29.1926C16.1163 27.8441 15.7972 23.4916 15.7972 23.4916C15.4239 23.7204 14.9905 23.8408 14.551 23.8348H14.4848C12.6788 23.8348 12.0768 21.9204 12.0768 21.9204H12.1129C14.0213 21.8602 15.8092 20.9572 16.9892 19.4582C18.2293 17.887 19.2407 16.5023 21.2454 15.9605L21.444 15.9244L21.4862 15.7258C21.5403 15.4187 21.3296 15.1237 20.8841 14.8227C18.1209 13.0167 19.9992 10.705 19.9992 10.705C19.9992 10.705 20.7818 12.5532 22.5577 12.5532H22.642C22.8467 12.5472 23.0453 12.5291 23.244 12.493L23.5691 12.4268C23.2922 11.4876 23.5691 10.4702 24.2795 9.79598C24.9778 9.07357 25.947 8.67023 26.9524 8.68227C27.127 8.68227 27.3076 8.69431 27.4821 8.72441C26.8801 9.52508 26.4346 10.8495 27.139 11.6622C27.741 12.3666 29.234 12.3967 29.234 13.4682C29.234 13.9137 28.8186 14.4314 28.0781 14.895C25.8387 16.3037 23.6173 18.1759 22.6962 20.6803C21.5464 23.8047 22.8467 25.8816 24.7009 27.0676C24.2975 27.4047 23.7979 27.6154 23.2741 27.6696H22.7744C21.8052 27.7117 20.848 27.4167 20.0714 26.8328C20.228 27.6575 20.5952 28.4281 21.143 29.0602C22.0641 30.1257 23.4306 30.7157 24.8393 30.6555C24.8273 31.2274 24.5744 31.7692 24.135 32.1365C23.6534 32.4615 23.1055 32.6662 22.5276 32.7385C22.5276 32.7385 24.6286 33.1659 24.8574 36.2662C24.8514 37.0548 25.044 37.8314 25.4112 38.5298L25.3811 38.5057V38.5057Z" fill="#222220"/>
<path d="M14.527 18.5672H14.5331C14.7618 18.5672 14.9966 18.5311 15.2133 18.4589C15.7913 18.206 16.2789 17.7846 16.622 17.2548C17.0735 16.6288 17.6575 16.105 18.3317 15.7197L19.1745 15.2682L18.3919 14.7204C17.9585 14.4435 17.4588 14.2869 16.9471 14.2809C16.2789 14.2869 15.6468 14.5699 15.1953 15.0635C14.5933 15.7619 13.7625 16.2375 12.8535 16.406L12.0046 16.4482L12.3478 17.2308C12.7692 18.0495 13.606 18.5612 14.527 18.5672V18.5672ZM15.6107 15.4729C15.9478 15.0936 16.4294 14.8709 16.9411 14.8709C17.3324 14.8769 17.7177 14.9973 18.0488 15.208C16.3451 16.117 15.9899 17.5739 15.0388 17.905C14.8822 17.9592 14.7137 17.9893 14.5451 17.9893C13.8468 17.9893 13.2087 17.604 12.8836 16.99C13.9431 16.8154 14.9063 16.2796 15.6107 15.4729V15.4729ZM18.3619 25.3579C18.2596 23.4435 18.7292 21.5411 19.7225 19.8977C19.0964 21.7157 19.584 23.7385 20.9807 25.0629C20.9807 25.0629 17.6335 21.0535 22.3111 16.9478C24.1833 15.3826 26.2242 14.4194 27.2777 13.7331C23.473 14.9732 21.6128 13.6067 21.6128 13.6067C22.6783 14.4375 24.0509 14.7625 25.3753 14.4916C25.1104 14.6181 24.8335 14.7565 24.5385 14.913C21.3298 16.6589 18.4282 19.5304 17.9526 23.5037V23.4736C17.2061 27.3746 15.5446 28.3739 15.5446 28.3739C16.8629 27.7237 17.6997 25.9659 17.8984 25.3639C18.1211 28.7953 19.7947 31.1732 21.7512 33.4609C22.3472 34.1471 22.8168 34.9418 23.1238 35.8027C22.9613 34.9418 22.588 34.1291 22.0402 33.4428C20.2342 31.2455 18.4884 28.4883 18.3619 25.3579ZM33.2795 18.1097C33.4902 17.905 33.7852 17.8087 34.0802 17.8448V18.9826C34.0742 19.2655 34.0019 19.5364 33.8635 19.7833H35.0013C34.8628 19.5364 34.7906 19.2655 34.7846 18.9826V17.8448C35.0735 17.8087 35.3685 17.905 35.5792 18.1097V17.3211H33.2795V18.1097V18.1097ZM32.804 12.6495H32.792C32.9666 12.8 33.1713 12.9204 33.394 12.9926L33.5385 13.0589V12.3124L32.202 11.7525C32.2682 12.1257 32.485 12.4508 32.804 12.6495V12.6495ZM35.9767 12.6435L35.9707 12.6495C36.2897 12.4508 36.5064 12.1257 36.5727 11.7525L35.2362 12.3124V13.0528L35.3747 12.9866C35.5974 12.9144 35.8021 12.794 35.9767 12.6435V12.6435Z" fill="#222220"/>
<path d="M38.3726 9.62743C38.3726 8.50167 36.4763 7.4903 34.3873 7.4903C32.2983 7.4903 30.402 8.50167 30.402 9.62743L30.4442 9.90435L31.2809 14.7204L30.4442 15.208L28.2589 16.4482C28.2589 16.4482 27.7712 16.701 27.5425 16.8515C26.7177 17.4535 26.5432 18.2602 27.0187 18.6094C27.1391 17.7906 27.8555 17.1886 28.6863 17.2127C29.3786 17.2308 30.0228 17.5799 30.4141 18.1518C30.5345 18.2963 30.6428 18.4528 30.7391 18.6094C30.8656 18.814 30.992 18.9946 31.1184 19.1692H25.5438C26.0134 19.9759 26.2843 20.8849 26.3445 21.8181V34.2013C26.3445 37.2114 28.6502 38.6261 31.1605 38.6261C33.087 38.6261 33.3458 38.5358 34.4054 39.5953C35.4649 38.5358 35.7238 38.6261 37.6502 38.6261C40.1425 38.6261 42.4662 37.1993 42.4662 34.2013V21.8301C42.5264 20.897 42.7973 19.988 43.2669 19.1813H37.6321C37.7585 19.0067 37.885 18.8261 38.0114 18.6214C38.1137 18.4649 38.2221 18.3084 38.3365 18.1639C38.7338 17.592 39.3779 17.2428 40.0702 17.2247C40.901 17.2007 41.6174 17.8027 41.7378 18.6214C42.2194 18.2783 42.0448 17.4174 41.2141 16.8635C40.9913 16.707 40.5037 16.4602 40.5037 16.4602L38.3365 15.1839L37.4997 14.6963L38.3365 9.88027L38.3726 9.62743ZM31.2087 10.1813L34.1465 11.1746V15.786L31.9853 14.6421L31.2087 10.1813V10.1813ZM26.7478 19.9819H31.8107C32.202 20.3913 32.6836 20.7164 33.2134 20.9211C33.099 21.3184 33.1291 21.7458 33.2916 22.1251C33.4843 22.5284 33.8274 22.8415 34.2488 23.004C34.3271 23.6963 34.7967 24.2742 35.4528 24.503C35.0916 24.8702 34.7365 25.2134 34.592 25.3518L31.2268 25.2977C31.1124 25.2435 31.0221 25.1592 30.9619 25.0508V25.0087L31.5097 25.099H31.5458C31.6542 25.099 31.7445 25.0268 31.7626 24.9184C31.7806 24.798 31.7023 24.6896 31.5819 24.6655L30.9077 24.5572L31.6542 21.9686L30.9438 20.4756L29.806 21.6796L29.7338 24.3706L28.9692 24.2502C28.8488 24.2261 28.7405 24.3043 28.7164 24.4247V24.4308C28.6983 24.5512 28.7766 24.6595 28.897 24.6836L29.2161 24.7318C29.1017 24.798 29.0234 24.8461 29.0174 24.8582L28.9512 24.9063V24.9846C28.8007 25.6709 29.0776 26.3813 29.6435 26.7906V26.887C29.6074 27.1217 29.7699 27.3445 30.0047 27.3866H30.0769C30.2756 27.3866 30.4502 27.2482 30.4923 27.0495C30.6368 27.0555 30.7753 27.0555 30.9197 27.0495H31.01L35.4227 27.8502L35.495 27.802C35.8442 27.5552 37.1866 26.598 37.6261 26.2548C37.7525 26.3632 37.897 26.4595 38.0475 26.5318C37.8428 27.1639 37.9993 27.8562 38.4569 28.3378H27.1512V21.8301C27.1271 21.198 26.9886 20.5719 26.7478 19.9819V19.9819ZM37.2468 25.9358C36.7893 26.2729 35.6636 27.0916 35.2542 27.3806L31.2508 26.6823V26.5739C31.3171 26.303 31.3532 26.0261 31.3592 25.7492L34.7304 25.8033L34.7967 25.7371C34.8508 25.6829 35.9164 24.6535 36.4582 24.0575C36.6027 24.2381 36.7712 24.3886 36.9639 24.509C36.8676 25.0027 36.9699 25.5144 37.2468 25.9358V25.9358ZM30.5585 25.2134V25.2314C30.6488 25.4 30.7813 25.5445 30.9438 25.6408C30.9378 25.8876 30.9137 26.1284 30.8716 26.3692C30.8716 26.4234 30.8716 26.4776 30.8294 26.5318V26.616C30.5525 26.616 30.2816 26.5739 30.0167 26.4896C29.5351 26.2308 29.2642 25.701 29.3425 25.1592C29.5592 25.0087 29.806 24.9124 30.0649 24.8762C30.2876 24.8702 30.4863 25.0027 30.5585 25.2134V25.2134ZM30.1432 24.4127L30.2094 21.8662L30.8114 21.2642L31.1786 22.0288L30.4622 24.509L30.1432 24.4127ZM37.2167 37.8254H36.6388L37.0903 36.3505C37.1625 36.1458 36.7893 35.8809 36.6328 35.6461C37 35.8689 37.3793 36.0675 37.7706 36.2481C37.7706 36.2963 37.2167 37.8254 37.2167 37.8254ZM38.7639 36.1759L38.7157 36.1338L38.4027 37.7592C38.204 37.7592 37.9933 37.8013 37.8007 37.8134L38.1318 36.2481C38.2281 35.7846 36.9819 35.6461 36.3679 34.7251C35.9646 35.0622 35.4468 35.2187 34.9291 35.1645C34.4716 35.1585 34.0201 35.1104 33.5746 35.0201C33.4963 35.014 33.4181 35.014 33.3398 35.0201C33.1532 35.008 32.9726 35.1043 32.8763 35.2669L32.786 35.4174L31.0702 35.002L30.6609 35.7124C30.5947 35.8087 30.6067 35.9411 30.691 36.0254L30.8054 36.1518C30.691 36.3746 30.5465 36.5793 30.3719 36.7538L30.1191 36.4408C29.9264 36.1277 29.9445 35.7244 30.1612 35.4294L30.8355 34.2916L32.2743 34.5084L32.0515 33.9966C31.7505 33.3224 32.208 32.4615 32.2562 31.9679C32.2562 32.1184 32.0997 32.1485 31.9432 32.1485H31.5278C31.4977 32.1425 31.4615 32.1425 31.4314 32.1485L31.0401 32.3833L30.7331 32.1003C30.685 32.01 30.703 31.9017 30.7753 31.8354L31.4856 31.0348L30.6428 30.0535L31.8468 30.6555L32.208 30.2221C32.3044 30.3184 32.2622 30.5712 32.2622 30.5712C33.1351 30.788 33.7432 31.5826 33.7191 32.4856V32.6602C33.8395 32.8528 34.0321 32.9853 34.2488 33.0395L35.8803 33.202C36.2054 33.0997 36.5365 33.0334 36.8736 32.9913C37.1625 32.9913 37.4515 33.0816 37.6923 33.2381C37.8067 33.1599 37.9452 33.1117 38.0836 33.1057H38.1378C38.8662 33.1057 39.1732 33.7679 39.5646 34.3097C39.8595 34.7251 40.2569 35.3512 40.2569 35.3512C40.1425 35.5197 39.9559 35.6221 39.7512 35.6221C39.6789 35.6281 39.6127 35.6281 39.5405 35.6221C38.7579 35.4776 38.6435 33.8642 38.198 33.7378H38.1258C38.0415 33.7378 37.9632 33.7859 37.9211 33.8642C38.1258 34.412 38.0054 34.6348 38.2281 35.0682C38.3906 35.3271 38.5953 35.5619 38.8301 35.7605C38.8301 35.7605 38.8 36.0013 38.7639 36.1759V36.1759ZM29.9927 34.5987H29.9806L30.0529 34.7853C30.0047 34.9478 29.4508 35.1826 29.4508 35.1826L29.3304 34.9177C29.1739 34.5385 29.2883 34.105 29.6194 33.8582L30.5284 33.3043L31.4977 33.509C31.4916 33.7017 31.5518 33.8883 31.6662 34.0448L30.6488 33.8522L30.0468 34.2736C29.9505 34.3579 29.9324 34.4903 29.9927 34.5987V34.5987ZM41.6355 34.2073C41.7017 35.8809 40.5398 37.3498 38.8963 37.6749L39.1732 36.2181C39.1732 36.1338 39.2033 36.0314 39.2154 35.9471C39.2997 35.9833 39.384 36.0073 39.4682 36.0254C39.5646 36.0314 39.6609 36.0314 39.7572 36.0254C40.0883 36.0254 40.4013 35.8749 40.6 35.61L40.8167 35.3572L40.6361 35.1104C40.6361 35.1104 40.2328 34.4722 39.9318 34.0508L39.7632 33.798C39.4261 33.2923 38.9987 32.6542 38.1498 32.6542H38.0716C37.9512 32.6602 37.8248 32.6843 37.7104 32.7264C37.4515 32.6 37.1686 32.5338 36.8796 32.5338C36.5906 32.5398 36.3017 32.594 36.0308 32.6963L35.8863 32.7385L34.297 32.5819C34.2308 32.5518 34.1766 32.5037 34.1345 32.4435L34.4776 32.305C34.3813 31.1552 33.2736 30.4508 32.6716 30.216C32.6415 30.0896 32.5813 29.9813 32.491 29.891L32.1478 29.5659L31.8468 29.9271L31.6963 30.1077L29.4689 29.1926L30.9197 30.9987L30.3478 31.8655C30.2274 31.9859 30.2214 32.1846 30.3478 32.311L30.9498 32.7204L31.5518 32.4916H31.612C31.612 32.5819 31.5458 32.9492 31.5157 33.0515L30.4682 32.8709L29.3485 33.4729C28.8308 33.8461 28.6502 34.5324 28.9211 35.1104L29.0475 35.3813L29.2221 35.7665L29.6134 35.604C29.4689 35.9953 29.5291 36.4288 29.7819 36.7599L30.0167 37.0609L30.3298 37.4582L30.6789 37.0849C30.9077 36.8562 31.0883 36.5913 31.2147 36.2963L31.287 36.0555L31.1184 35.8689V35.8328L31.311 35.5197L32.7017 35.8448L33.0147 35.917L33.1833 35.6401L33.2736 35.4896C33.2736 35.4595 33.2736 35.4535 33.3579 35.4535H33.5084C33.984 35.5498 34.4656 35.598 34.9472 35.604C35.2722 35.6221 35.5973 35.5859 35.9104 35.4896L36.6809 36.3686L36.2234 37.7772V37.8615C35.5371 37.8495 34.8809 38.1324 34.4174 38.6321C33.6769 37.8976 33.1532 37.8194 31.1726 37.8194C28.7947 37.8194 27.1873 36.4288 27.1873 34.2073V28.7893H41.6355V34.2073V34.2073ZM42.0268 19.9819C41.7799 20.5659 41.6475 21.192 41.6234 21.8301V25.8876C41.0997 25.7732 40.7084 25.3278 40.6722 24.792V24.6053H40.4916C40.1786 24.5813 39.8896 24.4368 39.6729 24.214C39.408 23.907 39.2635 23.5217 39.2575 23.1184C38.9987 23.5398 39.0227 24.0816 39.3238 24.4789C39.5585 24.7739 39.9017 24.9726 40.2749 25.0207C40.3833 25.7191 40.9431 26.2609 41.6415 26.3512V28.3378H39.113C38.4508 28.0007 38.1739 27.212 38.4689 26.5318L38.5652 26.315L38.3425 26.2308C37.6201 25.9779 37.2227 25.2013 37.4515 24.4669L37.4997 24.2863L37.3311 24.208C36.699 23.8408 36.3498 23.1244 36.4522 22.402C36.1211 22.7391 36.0368 23.2508 36.2475 23.6722C36.1271 23.8107 35.9706 23.9732 35.796 24.1538C35.1639 24.0214 34.7064 23.4736 34.6823 22.8294V22.6789L34.5438 22.6247C34.1766 22.5164 33.8756 22.2635 33.701 21.9264C33.5866 21.6495 33.5625 21.3365 33.6408 21.0475C33.7612 21.0716 33.8816 21.0896 34.002 21.1017C34.1224 21.1077 34.2488 21.1077 34.3692 21.1017C35.3445 21.1017 36.2716 20.6803 36.9217 19.9579L42.0268 19.9819V19.9819ZM38.1258 15.8763L39.113 16.4783L39.3599 16.6227C38.8482 16.7612 38.3846 17.0381 38.0174 17.4234L37.9753 17.4595C37.891 17.5498 37.8127 17.6401 37.7345 17.7365L37.6863 17.7967C37.608 17.893 37.5358 17.9953 37.4696 18.1037L37.4335 18.1579C37.3492 18.2783 37.2709 18.4107 37.1926 18.5431C36.6448 19.6328 35.5793 20.3612 34.3692 20.4816C33.1592 20.3612 32.0937 19.6328 31.5458 18.5431C31.4676 18.4107 31.3893 18.2843 31.311 18.1579L31.2629 18.0916L31.0702 17.7786L31.0161 17.7124C30.9378 17.6161 30.8595 17.5257 30.7813 17.4415L30.7391 17.3993C30.3719 17.014 29.9084 16.7371 29.3967 16.5987L29.6495 16.4542L30.6428 15.8522L31.6602 15.2502L34.3753 16.7251L37.0903 15.2983L38.1258 15.8763V15.8763ZM36.7893 14.6722L34.6281 15.81V11.1806L37.5599 10.1873L36.7893 14.6722V14.6722ZM34.3813 10.693L31.1666 9.40468C31.4375 8.75452 32.7017 8.20067 34.3813 8.20067C36.0609 8.20067 37.3251 8.75452 37.596 9.40468L34.3813 10.693V10.693Z" fill="#222220"/>
</svg>
