<svg width="52" height="32" viewBox="0 0 52 32" fill="none" xmlns="http://www.w3.org/2000/svg">
<path fill-rule="evenodd" clip-rule="evenodd" d="M18.7753 28.538H32.6927V3.41602H18.7753V28.538Z" fill="#FF5F00"/>
<path fill-rule="evenodd" clip-rule="evenodd" d="M19.659 15.9769C19.659 10.8803 22.0347 6.34107 25.7341 3.41596C23.0284 1.27638 19.6148 0 15.9044 0C7.12054 0 0.00012207 7.15323 0.00012207 15.9769C0.00012207 24.8007 7.12054 31.9539 15.9044 31.9539C19.6148 31.9539 23.0284 30.6775 25.7341 28.5379C22.0347 25.6124 19.659 21.0736 19.659 15.9769Z" fill="#EB001B"/>
<path fill-rule="evenodd" clip-rule="evenodd" d="M51.4681 15.9769C51.4681 24.8007 44.3472 31.9539 35.5638 31.9539C31.8534 31.9539 28.4394 30.6775 25.7341 28.5379C29.4335 25.6128 31.8092 21.0736 31.8092 15.9769C31.8092 10.8807 29.4335 6.34152 25.7341 3.41596C28.4394 1.27638 31.8534 0 35.5638 0C44.3472 0 51.4681 7.15323 51.4681 15.9769Z" fill="#F79E1B"/>
</svg>
