<svg width="52" height="14" viewBox="0 0 52 14" fill="none" xmlns="http://www.w3.org/2000/svg">
<path fill-rule="evenodd" clip-rule="evenodd" d="M4.80861 0.00238903C5.27317 -0.000354044 6.65382 -0.123088 7.23864 1.82503C7.63258 3.1373 8.2601 5.28686 9.1212 8.27372H9.47189C10.3954 5.12477 11.0297 2.9752 11.375 1.82503C11.9659 -0.14338 13.4432 0.00242761 14.0341 0.00242761L18.5931 0.00243322V14H13.9464V5.75099H13.6348L11.0446 14H7.54854L4.95825 5.74488H4.64666V14H0V0.00243322L4.80861 0.00238903ZM25.2656 0.00243322V8.25756H25.6363L28.7871 1.46943C29.3988 0.11857 30.7024 0.00243322 30.7024 0.00243322H35.1989V14H30.4552V5.74488H30.0845L26.9955 12.533C26.3838 13.8778 25.0185 14 25.0185 14H20.5219V0.00243322H25.2656ZM51.5953 6.65417C50.9336 8.5049 48.8556 9.83035 46.555 9.83035H41.5803V14H37.0693V6.65417H51.5953Z" fill="#FFF"/>
<path fill-rule="evenodd" clip-rule="evenodd" d="M46.7725 0.00244141H36.8326C37.0692 3.11878 39.7882 5.78656 42.603 5.78656H51.9087C52.4457 3.19652 50.597 0.00244141 46.7725 0.00244141Z" fill="#FFF"/>
<defs>
<linearGradient id="paint0_linear" x1="51.9999" y1="3.6409" x2="36.8326" y2="3.6409" gradientUnits="userSpaceOnUse">
<stop stop-color="#1F5CD7"/>
<stop offset="1" stop-color="#02AEFF"/>
</linearGradient>
</defs>
</svg>
